<?xml version="1.0" standalone="no"?>
<!DOCTYPE svg PUBLIC "-//W3C//DTD SVG 20010904//EN"
 "http://www.w3.org/TR/2001/REC-SVG-20010904/DTD/svg10.dtd">
<svg version="1.0" xmlns="http://www.w3.org/2000/svg"
 width="112.000000pt" height="112.000000pt" viewBox="0 0 112.000000 112.000000"
 preserveAspectRatio="xMidYMid meet">
<metadata>
Created by potrace 1.14, written by Peter Selinger 2001-2017
</metadata>
<g transform="translate(0.000000,112.000000) scale(0.100000,-0.100000)"
fill="#000000" stroke="none">
<path d="M237 1090 c-13 -34 -15 -35 -83 -17 -27 7 -73 14 -102 16 l-52 2 0
-228 c0 -168 3 -232 12 -241 9 -9 13 -58 13 -165 1 -120 5 -165 20 -212 10
-33 20 -53 21 -45 2 8 6 37 9 64 l7 49 23 -58 c13 -32 38 -76 56 -97 32 -41
34 -59 13 -135 l-6 -23 476 0 476 0 0 560 0 560 -436 0 -436 0 -11 -30z"/>
</g>
</svg>
